<?xml version="1.0" encoding="utf-8"?>
<svg version="1.1" xmlns="http://www.w3.org/2000/svg" xmlns:xlink="http://www.w3.org/1999/xlink"
	 viewBox="0 0 444.4 101.6" style="enable-background:new 0 0 444.4 101.6;" xml:space="preserve">
<style type="text/css">
	.st0{fill:#47593D;stroke:#000000;stroke-width:2.9197;stroke-miterlimit:10;}
	.st1{fill:none;stroke:#000000;stroke-width:2.9197;stroke-miterlimit:10;}
	.st2{stroke:#000000;stroke-width:0.7299;stroke-miterlimit:10;}
	.st3{fill:#869356;stroke:#000000;stroke-width:2.9197;stroke-miterlimit:10;}
	.st4{fill:none;stroke:#000000;stroke-width:0.7299;stroke-miterlimit:10;}
	.st5{stroke:#000000;stroke-width:2.9197;stroke-miterlimit:10;}
	.st6{fill:#47593D;}
	.st7{fill:#869356;}
	.st8{fill:#D3CF86;}
	.st9{fill:#172C1E;}
	.st10{fill:none;stroke:#000000;stroke-width:4.3795;stroke-miterlimit:10;}
	.st11{fill:#FFFFFF;stroke:#000000;stroke-width:2.9197;stroke-miterlimit:10;}
</style>
<path class="st0" d="M69.2,40.9L26.9,5.6C23.6,2.4,14.1,4,4.5,5.6l35,47.7c1.2,2,3.4,2.7,6,3l31.9,2.4l86.1,13l7.7,1.7
	c15,7.2,29.8,12.7,44.3,14.8l6.3,0.9H340l4.5-1.1H365l5.3,2.2c3.4-0.3,4.5-3.9,4.5-5.9h3.5c0.1-2.8-0.1-5.2-2.4-6.2l-3-12.7
	l-20.4-5.3l-5-0.7l-6-10.4l-20.1,0.2l-0.1-1.3l-5.5-14.6L288.5,33l-0.2-6.5c-4.5-1.7-11.9-2-20.6-1.7l-1.4,1h-28.7l-0.3,0.7
	c0,0-38.4-3.2-46.1,11.3L69.2,40.9z"/>
<path class="st1" d="M49.2,68.9c0.6-0.5,11.5-11.4,11.5-11.4l-3-4.3l-5.7,3.7L49.2,68.9z"/>
<polygon points="135.2,67.5 134.3,70.7 124.3,68.5 123.5,65.7 "/>
<line class="st1" x1="129.8" y1="39.4" x2="121.5" y2="28.9"/>
<polygon points="160.3,38.6 156.6,34.5 153.9,34.5 157.6,39.8 "/>
<path class="st2" d="M202,29.8h-13.5c1.4,6.3,6.5,8.3,13.5,8V29.8z"/>
<path d="M195.7,24c0-2.1-5.9-2.1-5.9,0v5.9h5.9V24z"/>
<path class="st3" d="M316.4,35.2c0,0,3.9-0.6,5.1,2.1c0.9,2.2,1.5,4.6,1.9,7l-2.6,2.7L316.4,35.2z"/>
<rect x="302" y="32" class="st4" width="4.1" height="1.2"/>
<line class="st1" x1="373.1" y1="66.7" x2="398.8" y2="66.7"/>
<circle class="st5" cx="219" cy="88.9" r="2.9"/>
<path class="st6" d="M344.4,88.2l4,4.4h18.4c1.9-0.5,3.6-1.7,4.5-3.4l-6-2.5h-20.9V88.2z"/>
<polygon points="348.5,91.3 342.6,91.3 340,89.3 340,84.7 348.3,84.7 "/>
<path class="st1" d="M377.4,84.1c0,4.1-3.3,7.5-7.5,7.5l-7.5,0v-7.4H377.4z"/>
<rect x="362" y="88.3" class="st5" width="19.2" height="3"/>
<line class="st1" x1="393.6" y1="89.8" x2="377.8" y2="89.8"/>
<circle class="st5" cx="366.9" cy="97.1" r="3"/>
<circle class="st0" cx="307.3" cy="88.4" r="5.5"/>
<path class="st3" d="M366.9,100.1h-14.3c0,0-9.5-1.4-9.5-9.7h23.8L366.9,100.1z"/>
<polygon class="st4" points="318.9,89.3 316.4,92.2 330.7,89.3 "/>
<line class="st1" x1="230" y1="89.3" x2="230" y2="94.2"/>
<rect x="256.4" y="10.7" class="st0" width="4.3" height="15.1"/>
<path class="st1" d="M240.9,25.9c-0.1-2.8,5.2-2.9,11.3,0H240.9z"/>
<path class="st5" d="M262.6,10.7h-8.1V7.6c0-2.6,8.1-2.6,8.1,0V10.7z"/>
<g>
	<path class="st7" d="M323.6,49.2l10.9-0.1c-0.9,0.9-1.8,1.8-2.8,2.6c-0.6,0.5-1.3,1-1.8,1.6c-1.8,2.2-3.6,2.3-4.8-0.3
		c-0.2-0.3-0.3-0.7-0.5-1c-0.1-0.2-0.2-0.4-0.2-0.5c-0.2-0.5-0.4-0.9-0.5-1.4C323.8,49.8,323.7,49.5,323.6,49.2z"/>
	<path class="st6" d="M147.8,69.4l-13.3-2c0-0.8,0-1.7,0-2.5c-0.1-3.3,1-6.9,2.2-10.1c1.9-4.8,6.5-5.7,8.7-1.8
		c1.2,2.3,2,4.9,2.2,7.5C148,63.4,147.7,66.5,147.8,69.4z"/>
	<path class="st6" d="M241.5,25.9c-0.2,0.8-0.5,1.6-0.7,2.4c-0.1,0.3-0.2,0.6-0.3,1c-0.1,0.5-0.3,0.9-0.4,1.4
		c-0.2,0.8-0.4,1.6-0.6,2.4s-0.4,1.6-0.5,2.4c-0.8,4.9-2.1,10.5-0.6,14.9c2.1,6.3,2.2,11.6-1.3,17.1c-0.5,1-0.9,2.1-1.2,3.2
		c-4-3-7.5-6.4-8.1-11.7c-0.4-3.9-0.7-7.8-0.7-11.7c0-7.3-2.8-12.6-9.8-15.6c-4.2-1.8-8.2-0.9-9.7,3.5c-2.2,6.2-4.3,12.5-5.5,19
		c-1.2,6.8-1.3,13.8-1.7,20.7c-0.1,0.8-0.2,1.7-0.5,2.5c-0.1,0.2-0.1,0.4-0.2,0.6c0,0,0,0,0,0.1c-0.1,0.2-0.1,0.4-0.2,0.5
		c-0.1,0.2-0.2,0.4-0.3,0.6c-0.1,0.2-0.2,0.4-0.3,0.6c-0.1,0.2-0.2,0.3-0.3,0.5c0,0,0,0,0,0c-0.1,0.2-0.2,0.4-0.4,0.5
		c-0.1,0.2-0.3,0.3-0.4,0.5s-0.3,0.3-0.4,0.5c-0.2,0.2-0.4,0.4-0.6,0.6c-0.2,0.2-0.4,0.4-0.6,0.5l-0.1,0.1c-0.2,0.1-0.4,0.3-0.5,0.4
		c0,0,0,0-0.1,0.1h0c-5.5-1.8-11-4-16.6-6.4h0c-0.6-9,3.5-16.2,8.9-23.2c4.8-6.2,8.6-12.9,9.7-20.9c0.1-0.4,0.1-0.8,0.2-1.2
		c13.5-7.4,39.6-5.2,39.6-5.2l0.3-0.7H241.5z"/>
	<path class="st7" d="M319.2,42.5c-0.1,0-0.2,0-0.4,0h0c0,0,0,0,0,0c-0.2,0-0.4,0.1-0.6,0.1c-2.7,0.6-4.9,3.6-4.1,6.1
		c0.7,2.5,1.7,5,2.7,7.4c1.6,3.7,2.6,7.4-0.1,10.9c-1.1,1.5-1.5,2.5,0.2,3.6c-2.7-0.3-3.7,1.4-3.4,3.5c0.5,3.5,1.5,6.8,2.3,10.3
		c-0.3,0.1-0.6,0.2-0.9,0.4c-0.2,0.1-0.3,0.1-0.5,0.2c-0.1,0.1-0.3,0.1-0.4,0.2c-0.2,0.1-0.4,0.2-0.5,0.3c-0.1,0.1-0.3,0.2-0.4,0.3
		c-0.1,0.1-0.3,0.2-0.4,0.3l-0.1,0.1c-0.1,0.1-0.3,0.2-0.4,0.3c-0.1,0.1-0.3,0.2-0.4,0.4c0,0,0,0,0,0c-0.1,0.1-0.2,0.3-0.4,0.4v0
		c-0.1,0.1-0.2,0.2-0.3,0.4c0,0.1-0.1,0.1-0.1,0.2c-0.1,0.1-0.1,0.2-0.2,0.3c-0.1,0.1-0.1,0.2-0.2,0.3c-0.1,0.1-0.1,0.2-0.1,0.4
		c-0.1,0.2-0.1,0.3-0.2,0.5h-11.5c-0.1-0.4-0.1-0.9-0.1-1.3c0-4.7-0.1-9.1-3.6-12.7c-2.9-3-4.8-6.4-4.8-10.8c0-2.5,0.1-5.2-0.7-7.5
		c-0.8-2.5-2.5-4.6-3.9-6.9c-0.1-0.1-1.6,0.4-1.7,0.7c-0.9,9.5-3.7,18.7-2.8,28.4c0.3,3.3,0.4,6.6,0.4,10h-36.8
		c-0.1-0.2-0.2-0.5-0.3-0.7c-0.1-0.3-0.3-0.7-0.5-1c-0.8-1.3-1.7-2.5-2.8-3.6c-0.1-0.1-2.1,1.3-3.2,2c-0.4-3.2-0.8-6.4-1.3-9.6
		c-0.3-1.9-0.6-3.8-0.9-5.6c0.3-1.1,0.7-2.2,1.2-3.2c3.5-5.5,3.4-10.8,1.3-17.1c-1.5-4.4-0.2-10,0.6-14.9c0.1-0.8,0.3-1.6,0.5-2.4
		s0.4-1.6,0.6-2.4c0.1-0.5,0.3-0.9,0.4-1.4c0.1-0.3,0.2-0.6,0.3-1c0.2-0.8,0.5-1.6,0.7-2.4h24.8l1.4-1c8.7-0.3,16.1,0,20.6,1.7
		l0.2,6.5l27.2,0.2L319.2,42.5z"/>
	<path class="st7" d="M346.8,85.9c0-0.2,0-0.5,0-0.7c0-0.2,0-0.5,0-0.7c0-0.3-0.1-0.6-0.1-0.9c0-0.2-0.1-0.4-0.1-0.6
		c0-0.2-0.1-0.5-0.2-0.7c0-0.1,0-0.2-0.1-0.3c0-0.2-0.1-0.3-0.2-0.5c0-0.1-0.1-0.3-0.2-0.4c0,0,0-0.1,0-0.1c0-0.1-0.1-0.2-0.1-0.3
		c-0.1-0.3-0.3-0.6-0.5-0.8c-0.1-0.1-0.1-0.2-0.2-0.2c-0.3-0.5-0.7-0.9-1-1.3c0,0-0.1-0.1-0.1-0.1c-0.7-0.7-1.4-1.3-2.2-1.9
		c-2.8-1.9-4.9-4.5-4.1-8.1c0.7-3.1,2-6,3.1-9c0.4-2.8,1-5.5,1-8.3c0-0.5-0.1-1.1-0.2-1.6l5.7,10l5,0.8l6.7,1.7c0,0.1,0,0.1,0,0.2
		c0,0.2,0,0.4,0,0.7c0,0.4,0,0.9-0.1,1.3c0,0.7,0,1.5,0,2.2c0,0.2,0,0.3,0,0.5c0,0.2,0,0.3,0,0.5c0,0.2,0,0.3,0,0.5
		c0,0.2,0,0.5,0,0.7c0,0.3,0,0.5,0.1,0.8c0,0.4,0.1,0.8,0.1,1.3c0,0.5,0.1,1.1,0.2,1.6c0.1,0.6,0.1,1.2,0.2,1.8c0,0.3,0.1,0.7,0.1,1
		c0.1,0.5,0.2,1.1,0.2,1.6c0.1,0.4,0.1,0.9,0.2,1.3c0.1,0.8,0.3,1.7,0.4,2.5c0.2,1.2,0.4,2.4,0.6,3.6c0.1,0.5,0.2,0.9,0.3,1.4
		c0.1,0.8,0.3,1.6,0.4,2.4c0,0.1,0.1,0.3,0.1,0.4h-15.5c0.1-0.4,0.2-0.8,0.2-1.2c0-0.2,0-0.3,0.1-0.5
		C346.8,86.3,346.8,86.1,346.8,85.9z"/>
	<path class="st6" d="M69.1,40.8c-0.3-0.1-0.6-0.1-0.9-0.2c-0.2,0-0.3,0-0.4,0c-0.1,0-0.3,0-0.4,0c-0.9,0-1.7,0.2-2.5,0.6
		c-2.7,1.6-4.1,8.6-3,12.8c0.2,0.8,0.4,1.6,0.6,2.5c0.1,0.4,0.2,0.8,0.3,1.2l-17.3-1.3c-2.6-0.2-4.7-1-6-3l-6.3-8.6
		c0.4-0.9,0.7-1.8,1.1-2.7c0.4-1,0.8-1.9,1.2-2.9c0.2-0.5,0.4-1,0.6-1.5c1.2-3,2.2-6.1,3.2-9.1c0.1-0.4,0.3-0.8,0.4-1.2
		c0.2-0.5,0.3-1,0.4-1.5s0.3-1,0.4-1.5c0.1-0.5,0.3-1,0.4-1.5c0.1-0.5,0.2-1,0.4-1.5c0.1-0.4,0.2-0.8,0.3-1.2
		c0.1-0.6,0.3-1.3,0.4-1.9L69.1,40.8z"/>
	<path class="st6" d="M104,40c-0.1,0.1-0.1,0.2-0.2,0.4c-0.9,3.3-1.9,6.5-2.8,9.8c-0.2,0.4-0.4,0.8-0.6,1.2
		c-0.1,0.9-0.2,1.7-0.3,2.6c0,0.3,0,0.5,0,0.8c0,2.5-0.1,4.9-0.1,7.4l-12.6-1.9c-0.1-0.2-0.3-0.3-0.5-0.5c-0.1-0.1-0.2-0.1-0.3-0.2
		c-0.1-0.1-0.2-0.1-0.3-0.1l-0.2-0.1L86,59.3c-0.1,0-0.1,0-0.2,0c-0.1,0-0.2,0-0.2,0c-0.1,0-0.2,0-0.3,0c-0.1,0-0.2,0-0.3,0
		c-0.5,0-0.9,0-1.4,0c-1.2,0.1-3.2-0.9-3.7-2c-1.6-3.3-2.8-6.8-3.8-10.4c0-0.1-0.1-0.2-0.1-0.3c0-0.1-0.1-0.2-0.1-0.3
		c-0.1-0.1-0.1-0.3-0.2-0.4c-0.1-0.1-0.1-0.2-0.2-0.3c-0.1-0.2-0.2-0.3-0.3-0.5v0c-0.1-0.1-0.1-0.2-0.2-0.3
		c-0.1-0.1-0.2-0.3-0.3-0.4c-0.1-0.1-0.2-0.3-0.3-0.4c-0.6-0.6-1.2-1.1-1.9-1.6c-0.2-0.1-0.3-0.2-0.5-0.3c0,0,0,0,0,0
		c-0.2-0.1-0.4-0.2-0.5-0.3c-0.1-0.1-0.3-0.2-0.4-0.2c-0.2-0.1-0.5-0.2-0.8-0.3c-0.1-0.1-0.3-0.1-0.4-0.2c-0.2-0.1-0.4-0.1-0.6-0.2
		L104,40z"/>
	<path class="st8" d="M197.6,31.8c-0.1,0.4-0.1,0.8-0.2,1.2c-1.1,7.9-4.9,14.7-9.7,20.9c-5.3,6.9-9.5,14.2-8.9,23.2
		c-2.6-1.1-5.1-2.3-7.7-3.6l-7.7-1.7l-15.6-2.4c-0.1-3,0.2-6-0.1-9c-0.2-2.6-1-5.2-2.2-7.5c-2.2-3.8-6.8-3-8.7,1.8
		c-1.3,3.2-2.4,6.7-2.2,10.1c0,0.9,0,1.7,0,2.5L100,62.2c0-2.5,0.1-4.9,0.1-7.4c0-0.3,0-0.5,0-0.8c0.1-0.9,0.2-1.7,0.3-2.6
		c0.2-0.4,0.4-0.8,0.6-1.2c0.9-3.3,1.9-6.5,2.8-9.8c0.1-0.1,0.1-0.2,0.2-0.4l87.1-2.1C192.7,35.3,194.9,33.1,197.6,31.8z"/>
	<path class="st7" d="M41.9,18.2c-0.1,0.6-0.2,1.3-0.4,1.9c-0.1,0.4-0.2,0.8-0.3,1.2c-0.1,0.5-0.2,1-0.4,1.5c-0.1,0.5-0.3,1-0.4,1.5
		c-0.1,0.5-0.3,1-0.4,1.5c-0.1,0.5-0.3,1-0.4,1.5c-0.1,0.4-0.2,0.8-0.4,1.2c-0.9,3.1-2,6.1-3.2,9.1c-0.2,0.5-0.4,1-0.6,1.5
		c-0.4,1-0.8,1.9-1.2,2.9c-0.4,0.9-0.7,1.8-1.1,2.7L19.7,26.4c1.2-2.8,1.6-5.7-0.5-8.6c-2.3-3.2-5.6-5.9-8.8-8.3
		C8.9,8.3,7.6,6.9,6.6,5.3c8.8-1.5,17.2-2.6,20.2,0.4L41.9,18.2z"/>
	<path class="st9" d="M239.5,89.3h-17.7l-6.3-0.9c-6.8-1.1-13.5-2.7-20-4.9c0,0,0,0,0.1-0.1c0.2-0.1,0.4-0.3,0.5-0.4l0.1-0.1
		c0.2-0.2,0.4-0.3,0.6-0.5c0.2-0.2,0.4-0.4,0.6-0.6c0.1-0.2,0.3-0.3,0.4-0.5c0.1-0.2,0.3-0.3,0.4-0.5c0.1-0.2,0.2-0.3,0.4-0.5
		c0,0,0,0,0,0c0.1-0.2,0.2-0.3,0.3-0.5c0.1-0.2,0.2-0.4,0.3-0.6c0.1-0.2,0.2-0.4,0.3-0.6c0.1-0.2,0.2-0.4,0.2-0.5c0,0,0,0,0-0.1
		c0.1-0.2,0.1-0.4,0.2-0.6c0.3-0.8,0.4-1.6,0.5-2.5c0.5-6.9,0.5-13.9,1.7-20.7c1.2-6.5,3.3-12.8,5.5-19c1.5-4.3,5.5-5.2,9.7-3.5
		c7,2.9,9.7,8.3,9.8,15.6c0,3.9,0.3,7.8,0.7,11.7c0.6,5.2,4.1,8.7,8.1,11.7c0.3,1.9,0.7,3.8,0.9,5.6c0.5,3.2,0.9,6.4,1.3,9.6
		c0.2,0.7,0.4,1.4,0.7,2.1C239,88.5,239.2,88.9,239.5,89.3z"/>
	<path class="st9" d="M87.4,60.3l-10-1.5l-14.6-1.1c-0.1-0.4-0.2-0.8-0.3-1.2c-0.2-0.8-0.4-1.6-0.6-2.5c-1.1-4.2,0.2-11.2,3-12.8
		c0.8-0.4,1.6-0.6,2.5-0.6c0.1,0,0.3,0,0.4,0c0.1,0,0.3,0,0.4,0c0.3,0,0.6,0.1,0.9,0.2h0l0.1,0h0.1c0.2,0,0.4,0.1,0.6,0.2
		c0.1,0,0.3,0.1,0.4,0.2c0.3,0.1,0.5,0.2,0.8,0.3c0.1,0.1,0.3,0.1,0.4,0.2c0.2,0.1,0.4,0.2,0.5,0.3c0,0,0,0,0,0
		c0.2,0.1,0.3,0.2,0.5,0.3c0.7,0.5,1.3,1,1.9,1.6c0.1,0.1,0.2,0.2,0.3,0.4c0.1,0.1,0.2,0.3,0.3,0.4c0.1,0.1,0.1,0.2,0.2,0.3v0
		c0.1,0.1,0.2,0.3,0.3,0.5c0.1,0.1,0.1,0.2,0.2,0.3c0.1,0.1,0.1,0.3,0.2,0.4c0,0.1,0.1,0.2,0.1,0.3c0,0.1,0.1,0.2,0.1,0.3
		c1,3.6,2.2,7,3.8,10.4c0.5,1.1,2.5,2.1,3.7,2c0.5,0,0.9-0.1,1.4,0c0.1,0,0.2,0,0.3,0c0.1,0,0.2,0,0.3,0c0.1,0,0.2,0,0.2,0
		c0.1,0,0.1,0,0.2,0l0.2,0.1l0.2,0.1c0.1,0,0.2,0.1,0.3,0.1c0.1,0,0.2,0.1,0.3,0.2C87.1,59.9,87.2,60.1,87.4,60.3z"/>
	<path class="st6" d="M378.4,84.5h-3.5c0,2-1.1,5.6-4.5,5.9l-5.3-2.2h-3c0-0.1-0.1-0.3-0.1-0.4c-0.1-0.8-0.3-1.6-0.4-2.4
		c-0.1-0.5-0.2-0.9-0.3-1.4c-0.2-1.2-0.4-2.4-0.6-3.6c-0.1-0.8-0.3-1.7-0.4-2.5c-0.1-0.4-0.1-0.9-0.2-1.3c-0.1-0.5-0.2-1.1-0.2-1.6
		c-0.1-0.3-0.1-0.7-0.1-1c-0.1-0.6-0.1-1.2-0.2-1.8c-0.1-0.5-0.1-1.1-0.2-1.6c0-0.4-0.1-0.8-0.1-1.3c0-0.3,0-0.5-0.1-0.8
		c0-0.2,0-0.5,0-0.7c0-0.2,0-0.3,0-0.5c0-0.2,0-0.3,0-0.5c0-0.2,0-0.3,0-0.5c0-0.7,0-1.4,0-2.2c0-0.4,0-0.9,0.1-1.3
		c0-0.2,0-0.4,0-0.7c0-0.1,0-0.1,0-0.2l13.8,3.6l3,12.7C378.2,79.3,378.4,81.7,378.4,84.5z"/>
	<path class="st8" d="M346.8,85.2c0,0.2,0,0.5,0,0.7c0,0.2,0,0.4,0,0.6c0,0.2,0,0.3-0.1,0.5c-0.1,0.4-0.1,0.8-0.2,1.2h-2.1l-4.5,1.1
		h-3.8c-0.2-0.9-0.5-1.9-0.7-2.8c-2.8-9-9.6-13.6-18.5-15.8c-1.8-1.1-1.4-2.1-0.2-3.6c2.7-3.5,1.7-7.2,0.1-10.9
		c-1.1-2.4-2-4.9-2.7-7.4c-0.7-2.5,1.4-5.5,4.1-6.1c0.2,0,0.4-0.1,0.6-0.1h0c0.1,0,0.2,0,0.4,0l2,5.4l0.1,1.3l2.3,0
		c0.1,0.3,0.2,0.5,0.2,0.8c0.2,0.5,0.3,1,0.5,1.4c0.1,0.2,0.1,0.4,0.2,0.5c0.1,0.4,0.3,0.7,0.5,1c1.2,2.6,3.1,2.5,4.8,0.3
		c0.6-0.6,1.2-1.1,1.8-1.6c0.7,4.9,2.9,8.5,9.1,7.6c-1.1,3-2.4,5.9-3.1,9c-0.8,3.6,1.3,6.2,4.1,8.1c0.8,0.5,1.6,1.2,2.2,1.9
		c0,0,0.1,0.1,0.1,0.1c0.4,0.4,0.7,0.8,1,1.3c0.1,0.1,0.1,0.2,0.2,0.2c0.2,0.3,0.3,0.5,0.5,0.8c0.1,0.1,0.1,0.2,0.1,0.3
		c0,0,0,0.1,0,0.1c0.1,0.1,0.1,0.3,0.2,0.4c0.1,0.2,0.1,0.3,0.2,0.5c0,0.1,0.1,0.2,0.1,0.3c0.1,0.2,0.1,0.5,0.2,0.7
		c0,0.2,0.1,0.4,0.1,0.6c0,0.3,0.1,0.6,0.1,0.9C346.8,84.7,346.8,84.9,346.8,85.2z"/>
	<polygon class="st8" points="321.3,49.2 323.6,49.2 321.3,49.2 321.2,47.9 319.2,42.5 321.2,47.9 	"/>
	<path class="st6" d="M298.9,89.3h-17.2c0-3.3-0.1-6.7-0.4-10c-0.9-9.7,2-18.9,2.8-28.4c0-0.3,1.6-0.8,1.7-0.7
		c1.4,2.2,3.1,4.4,3.9,6.9c0.8,2.3,0.7,5,0.7,7.5c0,4.4,1.9,7.7,4.8,10.8c3.4,3.6,3.6,8.1,3.6,12.7
		C298.8,88.4,298.8,88.9,298.9,89.3z"/>
	<path class="st9" d="M19.7,26.4L4.5,5.6c0.7-0.1,1.4-0.2,2.1-0.4c1,1.6,2.2,3.1,3.8,4.2c3.2,2.4,6.5,5.1,8.8,8.3
		C21.4,20.7,21,23.6,19.7,26.4z"/>
	<path class="st9" d="M332.6,89.3h-22.3c0-0.2,0.1-0.3,0.2-0.5c0-0.1,0.1-0.2,0.1-0.4c0.1-0.1,0.1-0.2,0.2-0.3
		c0.1-0.1,0.1-0.2,0.2-0.3c0-0.1,0.1-0.1,0.1-0.2c0.1-0.1,0.2-0.2,0.3-0.4v0c0.1-0.1,0.2-0.3,0.4-0.4c0,0,0,0,0,0
		c0.1-0.1,0.3-0.3,0.4-0.4c0.1-0.1,0.2-0.2,0.4-0.3l0.1-0.1c0.1-0.1,0.3-0.2,0.4-0.3c0.1-0.1,0.3-0.2,0.4-0.3
		c0.2-0.1,0.4-0.2,0.5-0.3c0.1-0.1,0.3-0.1,0.4-0.2c0.2-0.1,0.3-0.1,0.5-0.2c0.3-0.1,0.6-0.3,0.9-0.4
		C322.3,82,330.3,84.3,332.6,89.3z"/>
	<path class="st6" d="M336.1,89.3h-3.5c-2.3-5-10.3-7.3-16.8-4.8c-0.8-3.4-1.8-6.8-2.3-10.3c-0.3-2.2,0.7-3.8,3.4-3.5
		c8.8,2.2,15.6,6.8,18.5,15.8C335.6,87.4,335.9,88.4,336.1,89.3z"/>
	<path class="st6" d="M244.9,89.3h-5.4c-0.2-0.4-0.5-0.8-0.7-1.3c-0.3-0.7-0.5-1.4-0.7-2.1c1.1-0.7,3.1-2.1,3.2-2
		c1,1.1,1.9,2.3,2.8,3.6c0.2,0.3,0.4,0.7,0.5,1C244.7,88.8,244.8,89.1,244.9,89.3z"/>
	<path class="st6" d="M341.8,51c0,2.8-0.7,5.5-1,8.3c-6.2,0.9-8.4-2.7-9.1-7.6c1-0.8,1.9-1.8,2.8-2.6h0l6.9-0.1l0.2,0.4c0,0,0,0,0,0
		C341.8,50,341.9,50.5,341.8,51z"/>
</g>
<path class="st10" d="M69.2,40.9L26.9,5.6C23.6,2.4,14.1,4,4.5,5.6l35,47.7c1.2,2,3.4,2.7,6,3l31.9,2.4l86.1,13l7.7,1.7
	c15,7.2,29.8,12.7,44.3,14.8l6.3,0.9H340l4.5-1.1H365l5.3,2.2c3.4-0.3,4.5-3.9,4.5-5.9h3.5c0.1-2.8-0.1-5.2-2.4-6.2l-3-12.7
	l-20.4-5.3l-5-0.7l-6-10.4l-20.1,0.2l-0.1-1.3l-5.5-14.6L288.5,33l-0.2-6.5c-4.5-1.7-11.9-2-20.6-1.7l-1.4,1h-28.7l-0.3,0.7
	c0,0-38.4-3.2-46.1,11.3L69.2,40.9z"/>
<circle class="st5" cx="272.1" cy="40.8" r="7.7"/>
<polygon class="st11" points="371.5,68.2 373.8,75.8 371.5,77 366,73.7 "/>
<polygon class="st11" points="369.3,66.7 363.1,72.6 352.1,66.3 352.1,62 "/>
<polygon class="st11" points="340.8,50.9 346.3,60 343.6,63.1 335.9,60.6 335.9,50.9 "/>
<polygon class="st11" points="333.8,50.9 321.6,50.9 318,54.3 318,55.5 333.8,59.9 "/>
<rect x="282.7" y="59.3" class="st11" width="6.5" height="6.5"/>
<rect x="271.7" y="59.3" class="st11" width="6.5" height="6.5"/>
<rect x="255.9" y="59.3" class="st11" width="6.5" height="6.5"/>
<rect x="244.9" y="59.3" class="st11" width="6.5" height="6.5"/>
<g transform="translate(258.25 0)">
	<g>
        <rect x="-186.15" y="10.7" width="372.3" height="4.4"/>
        <animateTransform  accumulate="none" additive="replace" 
        attributeName="transform" begin="0s" calcMode="spline" dur="0.25s" fill="remove" 
        keySplines=".5 0 .5 1;.5 0 .5 1" repeatCount="indefinite" restart="always" type="scale" values="1 1;0.25 1;1 1">
        </animateTransform>
	</g>
</g>
</svg>
